<?xml version="1.0" encoding="UTF-8" standalone="no"?>
<svg
   width="16"
   height="16"
   fill="currentColor"
   class="bi bi-3-square"
   viewBox="0 0 16 16"
   version="1.1"
   id="svg6"
   sodipodi:docname="3-square.svg"
   inkscape:version="1.2.1 (9c6d41e410, 2022-07-14, custom)"
   xmlns:inkscape="http://www.inkscape.org/namespaces/inkscape"
   xmlns:sodipodi="http://sodipodi.sourceforge.net/DTD/sodipodi-0.dtd"
   xmlns="http://www.w3.org/2000/svg"
   xmlns:svg="http://www.w3.org/2000/svg">
  <defs
     id="defs10" />
  <sodipodi:namedview
     id="namedview8"
     pagecolor="#ffffff"
     bordercolor="#666666"
     borderopacity="1.0"
     inkscape:showpageshadow="2"
     inkscape:pageopacity="0.0"
     inkscape:pagecheckerboard="0"
     inkscape:deskcolor="#d1d1d1"
     showgrid="false"
     inkscape:zoom="14.75"
     inkscape:cx="-2.1355932"
     inkscape:cy="8.0338983"
     inkscape:window-width="1920"
     inkscape:window-height="1020"
     inkscape:window-x="0"
     inkscape:window-y="32"
     inkscape:window-maximized="1"
     inkscape:current-layer="svg6" />
  <path
     d="M7.918 8.414h-.879V7.342h.838c.78 0 1.348-.522 1.342-1.237 0-.709-.563-1.195-1.348-1.195-.79 0-1.312.498-1.348 1.055H5.275c.036-1.137.95-2.115 2.625-2.121 1.594-.012 2.608.885 2.637 2.062.023 1.137-.885 1.776-1.482 1.875v.07c.703.07 1.71.64 1.734 1.917.024 1.459-1.277 2.396-2.93 2.396-1.705 0-2.707-.967-2.754-2.144H6.33c.059.597.68 1.06 1.541 1.066.973.006 1.6-.563 1.588-1.354-.006-.779-.621-1.318-1.541-1.318Z"
     id="path2" />
</svg>
