<?xml version="1.0" encoding="UTF-8" standalone="no"?>
<svg
   width="16"
   height="16"
   fill="currentColor"
   class="bi bi-5-square"
   viewBox="0 0 16 16"
   version="1.1"
   id="svg6"
   sodipodi:docname="5-square.svg"
   inkscape:version="1.2.1 (9c6d41e410, 2022-07-14, custom)"
   xmlns:inkscape="http://www.inkscape.org/namespaces/inkscape"
   xmlns:sodipodi="http://sodipodi.sourceforge.net/DTD/sodipodi-0.dtd"
   xmlns="http://www.w3.org/2000/svg"
   xmlns:svg="http://www.w3.org/2000/svg">
  <defs
     id="defs10" />
  <sodipodi:namedview
     id="namedview8"
     pagecolor="#ffffff"
     bordercolor="#666666"
     borderopacity="1.0"
     inkscape:showpageshadow="2"
     inkscape:pageopacity="0.0"
     inkscape:pagecheckerboard="0"
     inkscape:deskcolor="#d1d1d1"
     showgrid="false"
     inkscape:zoom="14.75"
     inkscape:cx="-2.1355932"
     inkscape:cy="8.0338983"
     inkscape:window-width="1920"
     inkscape:window-height="1020"
     inkscape:window-x="0"
     inkscape:window-y="32"
     inkscape:window-maximized="1"
     inkscape:current-layer="svg6" />
  <path
     d="M7.994 12.158c-1.57 0-2.654-.902-2.719-2.115h1.237c.14.72.832 1.031 1.529 1.031.791 0 1.57-.597 1.57-1.681 0-.967-.732-1.57-1.582-1.57-.767 0-1.242.45-1.435.808H5.445L5.791 4h4.705v1.103H6.875l-.193 2.343h.064c.17-.258.715-.68 1.611-.68 1.383 0 2.561.944 2.561 2.585 0 1.687-1.184 2.806-2.924 2.806Z"
     id="path2" />
</svg>
