<?xml version="1.0" encoding="UTF-8" standalone="no"?>
<svg
   width="16"
   height="16"
   fill="currentColor"
   class="bi bi-9-square"
   viewBox="0 0 16 16"
   version="1.1"
   id="svg6"
   sodipodi:docname="9-square.svg"
   inkscape:version="1.2.1 (9c6d41e410, 2022-07-14, custom)"
   xmlns:inkscape="http://www.inkscape.org/namespaces/inkscape"
   xmlns:sodipodi="http://sodipodi.sourceforge.net/DTD/sodipodi-0.dtd"
   xmlns="http://www.w3.org/2000/svg"
   xmlns:svg="http://www.w3.org/2000/svg">
  <defs
     id="defs10" />
  <sodipodi:namedview
     id="namedview8"
     pagecolor="#ffffff"
     bordercolor="#666666"
     borderopacity="1.0"
     inkscape:showpageshadow="2"
     inkscape:pageopacity="0.0"
     inkscape:pagecheckerboard="0"
     inkscape:deskcolor="#d1d1d1"
     showgrid="false"
     inkscape:zoom="14.75"
     inkscape:cx="-2.1355932"
     inkscape:cy="8.0338983"
     inkscape:window-width="1920"
     inkscape:window-height="1020"
     inkscape:window-x="0"
     inkscape:window-y="32"
     inkscape:window-maximized="1"
     inkscape:current-layer="svg6" />
  <path
     d="M7.777 12.146c-1.593 0-2.425-.89-2.52-1.798h1.296c.1.357.539.72 1.248.72 1.36 0 1.88-1.353 1.834-3.023h-.076c-.235.627-.873 1.184-1.934 1.184-1.395 0-2.566-.961-2.566-2.666 0-1.711 1.242-2.731 2.87-2.731 1.512 0 2.971.867 2.971 4.014 0 2.836-1.02 4.3-3.123 4.3Zm.118-3.972c.808 0 1.535-.528 1.535-1.594s-.668-1.676-1.56-1.676c-.838 0-1.517.616-1.517 1.659 0 1.072.708 1.61 1.54 1.61Z"
     id="path2" />
</svg>
