<?xml version="1.0" encoding="UTF-8" standalone="no"?>
<svg
   width="16"
   height="16"
   fill="currentColor"
   class="bi bi-grid-3x3"
   viewBox="0 0 16 16"
   version="1.1"
   id="svg4"
   sodipodi:docname="favicon.svg"
   inkscape:version="1.2.1 (9c6d41e410, 2022-07-14, custom)"
   xmlns:inkscape="http://www.inkscape.org/namespaces/inkscape"
   xmlns:sodipodi="http://sodipodi.sourceforge.net/DTD/sodipodi-0.dtd"
   xmlns="http://www.w3.org/2000/svg"
   xmlns:svg="http://www.w3.org/2000/svg">
  <defs
     id="defs8" />
  <sodipodi:namedview
     id="namedview6"
     pagecolor="#ffffff"
     bordercolor="#666666"
     borderopacity="1.0"
     inkscape:showpageshadow="2"
     inkscape:pageopacity="0.0"
     inkscape:pagecheckerboard="0"
     inkscape:deskcolor="#d1d1d1"
     showgrid="false"
     inkscape:zoom="29.5"
     inkscape:cx="2.9322034"
     inkscape:cy="6.6271186"
     inkscape:window-width="1920"
     inkscape:window-height="1020"
     inkscape:window-x="0"
     inkscape:window-y="32"
     inkscape:window-maximized="1"
     inkscape:current-layer="svg4" />
  <path
     d="M0 1.5A1.5 1.5 0 0 1 1.5 0h13A1.5 1.5 0 0 1 16 1.5v13a1.5 1.5 0 0 1-1.5 1.5h-13A1.5 1.5 0 0 1 0 14.5v-13zM1.5 1a.5.5 0 0 0-.5.5V5h4V1H1.5zM5 6H1v4h4V6zm1 4h4V6H6v4zm-1 1H1v3.5a.5.5 0 0 0 .5.5H5v-4zm1 0v4h4v-4H6zm5 0v4h3.5a.5.5 0 0 0 .5-.5V11h-4zm0-1h4V6h-4v4zm0-5h4V1.5a.5.5 0 0 0-.5-.5H11v4zm-1 0V1H6v4h4z"
     id="path2" />
  <text
     xml:space="preserve"
     style="font-weight:bold;font-size:5.33333px;font-family:'Comic Sans MS';-inkscape-font-specification:'Comic Sans MS Bold';fill:#ffffff;fill-rule:evenodd;stroke-width:18;stroke-linecap:round;stroke-linejoin:round"
     x="1"
     y="5"
     id="text291"><tspan
       sodipodi:role="line"
       id="tspan289"
       x="1"
       y="5"
       style="font-style:normal;font-variant:normal;font-weight:bold;font-stretch:normal;font-size:5.33333px;font-family:Arial;-inkscape-font-specification:'Arial Bold';fill:#000000;fill-opacity:1">s</tspan></text>
  <text
     xml:space="preserve"
     style="font-weight:bold;font-size:5.33333px;font-family:'Comic Sans MS';-inkscape-font-specification:'Comic Sans MS Bold';fill:#ffffff;fill-rule:evenodd;stroke-width:18;stroke-linecap:round;stroke-linejoin:round"
     x="6"
     y="5"
     id="text291-5"><tspan
       sodipodi:role="line"
       id="tspan289-6"
       x="6"
       y="5"
       style="font-style:normal;font-variant:normal;font-weight:bold;font-stretch:normal;font-size:5.33333px;font-family:Arial;-inkscape-font-specification:'Arial Bold';fill:#000000;fill-opacity:1">u</tspan></text>
  <text
     xml:space="preserve"
     style="font-weight:bold;font-size:5.33333px;font-family:'Comic Sans MS';-inkscape-font-specification:'Comic Sans MS Bold';fill:#ffffff;fill-rule:evenodd;stroke-width:18;stroke-linecap:round;stroke-linejoin:round"
     x="1"
     y="10"
     id="text291-2"><tspan
       sodipodi:role="line"
       id="tspan289-9"
       x="1"
       y="10"
       style="font-style:normal;font-variant:normal;font-weight:bold;font-stretch:normal;font-size:5.33333px;font-family:Arial;-inkscape-font-specification:'Arial Bold';fill:#000000;fill-opacity:1">d</tspan></text>
  <text
     xml:space="preserve"
     style="font-weight:bold;font-size:5.33333px;font-family:'Comic Sans MS';-inkscape-font-specification:'Comic Sans MS Bold';fill:#ffffff;fill-rule:evenodd;stroke-width:18;stroke-linecap:round;stroke-linejoin:round"
     x="11"
     y="15"
     id="text291-1"><tspan
       sodipodi:role="line"
       id="tspan289-2"
       x="11"
       y="15"
       style="font-style:normal;font-variant:normal;font-weight:bold;font-stretch:normal;font-size:5.33333px;font-family:Arial;-inkscape-font-specification:'Arial Bold';fill:#000000;fill-opacity:1">u</tspan></text>
  <text
     xml:space="preserve"
     style="font-weight:bold;font-size:5.33333px;font-family:'Comic Sans MS';-inkscape-font-specification:'Comic Sans MS Bold';fill:#ffffff;fill-rule:evenodd;stroke-width:18;stroke-linecap:round;stroke-linejoin:round"
     x="6"
     y="15"
     id="text291-7"><tspan
       sodipodi:role="line"
       id="tspan289-0"
       x="6"
       y="15"
       style="font-style:normal;font-variant:normal;font-weight:bold;font-stretch:normal;font-size:5.33333px;font-family:Arial;-inkscape-font-specification:'Arial Bold';fill:#000000;fill-opacity:1">k</tspan></text>
  <text
     xml:space="preserve"
     style="font-weight:bold;font-size:5.33333px;font-family:'Comic Sans MS';-inkscape-font-specification:'Comic Sans MS Bold';fill:#ffffff;fill-rule:evenodd;stroke-width:18;stroke-linecap:round;stroke-linejoin:round"
     x="6"
     y="10"
     id="text291-9"><tspan
       sodipodi:role="line"
       id="tspan289-20"
       x="6"
       y="10"
       style="font-style:normal;font-variant:normal;font-weight:bold;font-stretch:normal;font-size:5.33333px;font-family:Arial;-inkscape-font-specification:'Arial Bold';fill:#000000;fill-opacity:1">o</tspan></text>
</svg>
