<?xml version="1.0" encoding="UTF-8" standalone="no"?>
<svg
   width="16"
   height="16"
   fill="currentColor"
   class="bi bi-6-square"
   viewBox="0 0 16 16"
   version="1.1"
   id="svg6"
   sodipodi:docname="6-square.svg"
   inkscape:version="1.2.1 (9c6d41e410, 2022-07-14, custom)"
   xmlns:inkscape="http://www.inkscape.org/namespaces/inkscape"
   xmlns:sodipodi="http://sodipodi.sourceforge.net/DTD/sodipodi-0.dtd"
   xmlns="http://www.w3.org/2000/svg"
   xmlns:svg="http://www.w3.org/2000/svg">
  <defs
     id="defs10" />
  <sodipodi:namedview
     id="namedview8"
     pagecolor="#ffffff"
     bordercolor="#666666"
     borderopacity="1.0"
     inkscape:showpageshadow="2"
     inkscape:pageopacity="0.0"
     inkscape:pagecheckerboard="0"
     inkscape:deskcolor="#d1d1d1"
     showgrid="false"
     inkscape:zoom="14.75"
     inkscape:cx="-2.1355932"
     inkscape:cy="8.0338983"
     inkscape:window-width="1920"
     inkscape:window-height="1020"
     inkscape:window-x="0"
     inkscape:window-y="32"
     inkscape:window-maximized="1"
     inkscape:current-layer="svg6" />
  <path
     d="M8.21 3.855c1.612 0 2.515.99 2.573 1.899H9.494c-.1-.358-.51-.815-1.312-.815-1.078 0-1.817 1.09-1.805 3.036h.082c.229-.545.855-1.155 1.98-1.155 1.254 0 2.508.88 2.508 2.555 0 1.77-1.218 2.783-2.847 2.783-.932 0-1.84-.328-2.409-1.254-.369-.603-.597-1.459-.597-2.642 0-3.012 1.248-4.407 3.117-4.407Zm-.099 4.008c-.92 0-1.564.65-1.564 1.576 0 1.032.703 1.635 1.558 1.635.868 0 1.553-.533 1.553-1.629 0-1.06-.744-1.582-1.547-1.582Z"
     id="path2" />
</svg>
