<?xml version="1.0" encoding="UTF-8" standalone="no"?>
<svg
   width="16"
   height="16"
   fill="currentColor"
   class="bi bi-8-square"
   viewBox="0 0 16 16"
   version="1.1"
   id="svg6"
   sodipodi:docname="8-square.svg"
   inkscape:version="1.2.1 (9c6d41e410, 2022-07-14, custom)"
   xmlns:inkscape="http://www.inkscape.org/namespaces/inkscape"
   xmlns:sodipodi="http://sodipodi.sourceforge.net/DTD/sodipodi-0.dtd"
   xmlns="http://www.w3.org/2000/svg"
   xmlns:svg="http://www.w3.org/2000/svg">
  <defs
     id="defs10" />
  <sodipodi:namedview
     id="namedview8"
     pagecolor="#ffffff"
     bordercolor="#666666"
     borderopacity="1.0"
     inkscape:showpageshadow="2"
     inkscape:pageopacity="0.0"
     inkscape:pagecheckerboard="0"
     inkscape:deskcolor="#d1d1d1"
     showgrid="false"
     inkscape:zoom="14.75"
     inkscape:cx="-2.1355932"
     inkscape:cy="8.0338983"
     inkscape:window-width="1920"
     inkscape:window-height="1020"
     inkscape:window-x="0"
     inkscape:window-y="32"
     inkscape:window-maximized="1"
     inkscape:current-layer="svg6" />
  <path
     d="M10.97 9.803c0 1.394-1.218 2.355-2.988 2.355-1.763 0-2.953-.955-2.953-2.344 0-1.271.95-1.851 1.647-2.003v-.065c-.621-.193-1.33-.738-1.33-1.781 0-1.225 1.09-2.121 2.66-2.121s2.654.896 2.654 2.12c0 1.061-.738 1.595-1.336 1.782v.065c.703.152 1.647.744 1.647 1.992Zm-4.347-3.71c0 .739.586 1.255 1.383 1.255s1.377-.516 1.377-1.254c0-.733-.58-1.23-1.377-1.23s-1.383.497-1.383 1.23Zm-.281 3.645c0 .838.72 1.412 1.664 1.412.943 0 1.658-.574 1.658-1.412 0-.843-.715-1.424-1.658-1.424-.944 0-1.664.58-1.664 1.424Z"
     id="path2" />
</svg>
